<svg xmlns="http://www.w3.org/2000/svg" viewBox="0 0 64 64">
  <title>Jolly Walker</title>
  <defs>
    <style>
      .bg{fill:#0f766e}
      .fg{fill:#fff7ed}
      .fg2{fill:#134e4a}
    </style>
  </defs>
  <circle class="bg" cx="32" cy="32" r="30"/>

  <!-- ears -->
  <path class="fg" d="M18 27c-1.4-5.6.9-10.6 4.6-13.3 1.7-1.2 3.6-.2 3.8 1.9l.8 9.2c.1 1.5-.8 2.9-2.2 3.5l-4.8 2.1c-1.1.5-2.2 0-2.2-1.4Z"/>
  <path class="fg" d="M46 27c1.4-5.6-.9-10.6-4.6-13.3-1.7-1.2-3.6-.2-3.8 1.9l-.8 9.2c-.1 1.5.8 2.9 2.2 3.5l4.8 2.1c1.1.5 2.2 0 2.2-1.4Z"/>

  <!-- head -->
  <path class="fg" d="M32 18c-10.7 0-18.2 8.4-18.2 18.6 0 10.4 7.1 19 16.9 19.8h2.6c9.8-.8 16.9-9.4 16.9-19.8C50.2 26.4 42.7 18 32 18Z"/>

  <!-- eyes -->
  <circle class="fg2" cx="25.5" cy="35" r="2.1"/>
  <circle class="fg2" cx="38.5" cy="35" r="2.1"/>

  <!-- muzzle -->
  <path fill="#fde68a" d="M22.5 39.2c.6 7.1 5.1 11.9 9.5 12.4 4.4-.5 8.9-5.3 9.5-12.4.1-1.6-1.2-3-2.8-3.2-1.9-.3-4.2-.5-6.7-.5s-4.8.2-6.7.5c-1.6.2-2.9 1.6-2.8 3.2Z"/>

  <!-- nose + mouth -->
  <path class="fg2" d="M32 40.4c-1.7 0-3 1.1-3 2.5 0 1.6 1.4 2.7 3 2.7s3-1.1 3-2.7c0-1.4-1.3-2.5-3-2.5Z"/>
  <path class="fg2" d="M28.6 46.2c.3 0 .6.1.8.4 1 1.4 1.8 2 2.6 2.1.8-.1 1.6-.7 2.6-2.1.3-.4.8-.5 1.2-.2.4.3.5.8.2 1.2-1.2 1.7-2.5 2.7-4 2.8-1.5-.1-2.8-1.1-4-2.8-.3-.4-.2-.9.2-1.2.2-.1.4-.2.6-.2Z"/>
</svg>
